<svg xmlns="http://www.w3.org/2000/svg" xmlns:xlink="http://www.w3.org/1999/xlink" width="135" height="17" viewBox="0 0 135 17">
  <defs>
    <rect id="noiceland_logo-a" width="136" height="30"/>
  </defs>
  <g fill="none" fill-rule="evenodd" transform="translate(-295 -37)">
    <rect width="1880" height="5124" fill="#FFF"/>
    <g transform="translate(295 30)">
      <mask id="noiceland_logo-b" fill="#fff">
        <use xlink:href="#noiceland_logo-a"/>
      </mask>
      <path fill="#000" d="M4.8,16.12 C4.62399912,15.8639987 4.38400152,15.4840025 4.08,14.98 C3.77599848,14.4759975 3.57600048,14.1440008 3.48,13.984 L3.384,14.056 L3.384,23.704 L0,23.704 L0,7.24 L3.144,7.24 L8.328,14.872 L9.048,16 C9.30400128,16.4480022 9.50399928,16.775999 9.648,16.984 L9.72,16.912 L9.72,7.24 L13.104,7.24 L13.104,23.704 L9.96,23.704 L4.8,16.12 Z M30.696,16.648 C30.696,18.1520075 30.3680033,19.4559945 29.712,20.56 C29.0559967,21.6640055 28.1720056,22.5039971 27.06,23.08 C25.9479944,23.6560029 24.7120068,23.944 23.352,23.944 C21.9919932,23.944 20.7560056,23.6560029 19.644,23.08 C18.5319944,22.5039971 17.6480033,21.6640055 16.992,20.56 C16.3359967,19.4559945 16.008,18.1520075 16.008,16.648 L16.008,14.296 C16.008,12.7919925 16.3359967,11.4880055 16.992,10.384 C17.6480033,9.27999448 18.5319944,8.44000288 19.644,7.864 C20.7560056,7.28799712 21.9919932,7 23.352,7 C24.7120068,7 25.9479944,7.28799712 27.06,7.864 C28.1720056,8.44000288 29.0559967,9.27999448 29.712,10.384 C30.3680033,11.4880055 30.696,12.7919925 30.696,14.296 L30.696,16.648 Z M26.808,13.768 C26.808,12.5519939 26.4880032,11.6120033 25.848,10.948 C25.2079968,10.2839967 24.3760051,9.952 23.352,9.952 C22.3279949,9.952 21.4960032,10.2839967 20.856,10.948 C20.2159968,11.6120033 19.896,12.5519939 19.896,13.768 L19.896,17.176 C19.896,18.3920061 20.2159968,19.3319967 20.856,19.996 C21.4960032,20.6600033 22.3279949,20.992 23.352,20.992 C24.3760051,20.992 25.2079968,20.6600033 25.848,19.996 C26.4880032,19.3319967 26.808,18.3920061 26.808,17.176 L26.808,13.768 Z M33.576,7.24 L41.16,7.24 L41.16,10.192 L39.24,10.192 L39.24,20.752 L41.16,20.752 L41.16,23.704 L33.576,23.704 L33.576,20.752 L35.52,20.752 L35.52,10.192 L33.576,10.192 L33.576,7.24 Z M47.952,17.176 C47.952,18.3920061 48.2799967,19.3319967 48.936,19.996 C49.5920033,20.6600033 50.423995,20.992 51.432,20.992 C52.5680057,20.992 53.4079973,20.6840031 53.952,20.068 C54.4960027,19.4519969 54.768,18.5040064 54.768,17.224 L58.152,17.224 C58.152,18.632007 57.8680028,19.8439949 57.3,20.86 C56.7319972,21.8760051 55.952005,22.6439974 54.96,23.164 C53.967995,23.6840026 52.8480062,23.944 51.6,23.944 L51.264,23.944 C49.8879931,23.944 48.6560054,23.6640028 47.568,23.104 C46.4799946,22.5439972 45.6240031,21.7160055 45,20.62 C44.3759969,19.5239945 44.064,18.2000078 44.064,16.648 L44.064,14.296 C44.064,12.7919925 44.3759969,11.4880055 45,10.384 C45.6240031,9.27999448 46.4759946,8.44000288 47.556,7.864 C48.6360054,7.28799712 49.8399934,7 51.168,7 L51.504,7 C52.7840064,7 53.923995,7.25199748 54.924,7.756 C55.924005,8.26000252 56.7119971,9.01999492 57.288,10.036 C57.8640029,11.0520051 58.152,12.2959926 58.152,13.768 L54.624,13.768 C54.624,12.5199938 54.3480028,11.5720032 53.796,10.924 C53.2439972,10.2759968 52.4480052,9.952 51.408,9.952 C50.399995,9.952 49.5720032,10.2839967 48.924,10.948 C48.2759968,11.6120033 47.952,12.5519939 47.952,13.768 L47.952,17.176 Z M61.032,23.704 L61.032,7.24 L72.624,7.24 L72.216,10.192 L64.68,10.192 L64.68,13.792 L71.712,13.792 L71.712,16.744 L64.68,16.744 L64.68,20.752 L72.288,20.752 L72.696,23.704 L61.032,23.704 Z M75.384,23.704 L75.384,7.24 L79.104,7.24 L79.104,20.632 L85.872,20.632 L86.28,23.704 L75.384,23.704 Z M97.776,20.464 L91.224,20.464 L90.072,23.704 L86.496,23.704 L92.472,7.24 L96.888,7.24 L102.864,23.704 L98.976,23.704 L97.776,20.464 Z M92.232,17.656 L96.792,17.656 C96.183997,15.847991 95.4480043,13.6960125 94.584,11.2 L94.464,11.2 L92.232,17.656 Z M109.44,16.12 C109.263999,15.8639987 109.024002,15.4840025 108.72,14.98 C108.415998,14.4759975 108.216,14.1440008 108.12,13.984 L108.024,14.056 L108.024,23.704 L104.64,23.704 L104.64,7.24 L107.784,7.24 L112.968,14.872 L113.688,16 C113.944001,16.4480022 114.143999,16.775999 114.288,16.984 L114.36,16.912 L114.36,7.24 L117.744,7.24 L117.744,23.704 L114.6,23.704 L109.44,16.12 Z M127.464,7.24 C128.824007,7.24 130.059994,7.52799712 131.172,8.104 C132.284006,8.68000288 133.167997,9.51999448 133.824,10.624 C134.480003,11.7280055 134.808,13.0319925 134.808,14.536 L134.808,16.408 C134.808,17.9120075 134.480003,19.2159945 133.824,20.32 C133.167997,21.4240055 132.284006,22.2639971 131.172,22.84 C130.059994,23.4160029 128.824007,23.704 127.464,23.704 L121.224,23.704 L121.224,7.24 L127.464,7.24 Z M124.944,20.752 L127.464,20.752 C128.488005,20.752 129.319997,20.4200033 129.96,19.756 C130.600003,19.0919967 130.92,18.1520061 130.92,16.936 L130.92,14.008 C130.92,12.7919939 130.600003,11.8520033 129.96,11.188 C129.319997,10.5239967 128.488005,10.192 127.464,10.192 L124.944,10.192 L124.944,20.752 Z" mask="url(#noiceland_logo-b)"/>
    </g>
  </g>
</svg>
